
mtllib wheel_r.mtl

#num verts102
v 0.194998 0.132927 -0.230236
v 0.194998 -1.66275e-008 -1.52919e-007
v 0.194998 1.22822e-007 -0.265853
v 0.194998 0.230236 -0.132927
v 0.194998 0.265853 -1.84813e-009
v 0.194998 0.230235 0.132927
v 0.194998 0.132926 0.230236
v 0.194998 -1.79319e-007 0.265853
v 0.194998 -0.132927 0.230235
v 0.194998 -0.230236 0.132926
v 0.194998 -0.265853 -3.27231e-007
v 0.194998 -0.230236 -0.132927
v 0.194998 -0.132926 -0.230236
v -0.194998 0.132927 -0.230236
v 0.194998 1.22822e-007 -0.265853
v -0.194998 1.99213e-007 -0.265853
v 0.194998 0.132927 -0.230236
v -0.194998 0.230236 -0.132926
v 0.194998 0.230236 -0.132927
v -0.194998 0.265853 1.50188e-007
v 0.194998 0.265853 -1.84813e-009
v -0.194998 0.230236 0.132927
v 0.194998 0.265853 -1.84813e-009
v -0.194998 0.265853 1.50188e-007
v 0.194998 0.230235 0.132927
v -0.194998 0.132926 0.230236
v 0.194998 0.132926 0.230236
v -0.194998 -1.02928e-007 0.265853
v 0.194998 -1.79319e-007 0.265853
v -0.194998 -0.132927 0.230236
v 0.194998 -0.132927 0.230235
v -0.194998 -0.230236 0.132926
v 0.194998 -0.230236 0.132926
v -0.194998 -0.265853 -1.75195e-007
v 0.194998 -0.265853 -3.27231e-007
v -0.194998 -0.230235 -0.132927
v 0.194998 -0.230236 -0.132927
v -0.194998 -0.132926 -0.230236
v 0.194998 -0.132926 -0.230236
v -0.194998 0.118076 -0.204513
v -0.194998 1.99213e-007 -0.265853
v -0.194998 1.78834e-007 -0.236151
v -0.194998 0.132927 -0.230236
v -0.194998 0.204513 -0.118075
v -0.194998 0.230236 -0.132926
v -0.194998 0.236151 1.30772e-007
v -0.194998 0.265853 1.50188e-007
v -0.194998 0.204513 0.118076
v -0.194998 0.230236 0.132927
v -0.194998 0.118076 0.204513
v -0.194998 0.132926 0.230236
v -0.194998 -8.9551e-008 0.236151
v -0.194998 -1.02928e-007 0.265853
v -0.194998 -0.118076 0.204513
v -0.194998 -0.132927 0.230236
v -0.194998 -0.204513 0.118075
v -0.194998 -0.230236 0.132926
v -0.194998 -0.236151 -1.58258e-007
v -0.194998 -0.265853 -1.75195e-007
v -0.194998 -0.204513 -0.118076
v -0.194998 -0.230235 -0.132927
v -0.194998 -0.118075 -0.204513
v -0.194998 -0.132926 -0.230236
v -0.110191 0.111598 -0.193292
v -0.194998 1.78834e-007 -0.236151
v -0.110191 1.50512e-007 -0.223195
v -0.194998 0.118076 -0.204513
v -0.110191 0.193292 -0.111597
v -0.194998 0.204513 -0.118075
v -0.110191 0.223195 8.60196e-008
v -0.194998 0.236151 1.30772e-007
v -0.110191 0.193292 0.111598
v -0.194998 0.236151 1.30772e-007
v -0.110191 0.223195 8.60196e-008
v -0.194998 0.204513 0.118076
v -0.110191 0.111597 0.193292
v -0.194998 0.118076 0.204513
v -0.110191 -1.03148e-007 0.223195
v -0.194998 -8.9551e-008 0.236151
v -0.110191 -0.111597 0.193292
v -0.194998 -0.118076 0.204513
v -0.110191 -0.193292 0.111597
v -0.194998 -0.204513 0.118075
v -0.110191 -0.223195 -1.87153e-007
v -0.194998 -0.236151 -1.58258e-007
v -0.110191 -0.193292 -0.111598
v -0.194998 -0.204513 -0.118076
v -0.110191 -0.111597 -0.193292
v -0.194998 -0.118075 -0.204513
v -0.110191 1.50512e-007 -0.223195
v -0.110191 3.34385e-008 -4.08104e-008
v -0.110191 0.111598 -0.193292
v -0.110191 0.193292 -0.111597
v -0.110191 0.223195 8.60196e-008
v -0.110191 0.193292 0.111598
v -0.110191 0.111597 0.193292
v -0.110191 -1.03148e-007 0.223195
v -0.110191 -0.111597 0.193292
v -0.110191 -0.193292 0.111597
v -0.110191 -0.223195 -1.87153e-007
v -0.110191 -0.193292 -0.111598
v -0.110191 -0.111597 -0.193292

vt 0.429539 -0.0509831
vt 0.37202 -0.0841921
vt 0.438437 -0.0841921
vt 0.405229 -0.0266725
vt 0.37202 -0.0177743
vt 0.338811 -0.0266727
vt 0.3145 -0.0509831
vt 0.305602 -0.0841921
vt 0.3145 -0.117401
vt 0.338811 -0.141712
vt 0.37202 -0.15061
vt 0.405229 -0.141712
vt 0.429539 -0.117401
vt 0.316776 -0.320522
vt 0.285098 -0.383162
vt 0.285098 -0.320522
vt 0.316776 -0.383162
vt 0.348454 -0.320522
vt 0.348454 -0.383162
vt 0.380131 -0.320522
vt 0.380131 -0.383162
vt 0.0316775 -0.320522
vt -7.74519e-008 -0.383162
vt -7.74519e-008 -0.320522
vt 0.0316775 -0.383162
vt 0.0633551 -0.320522
vt 0.0633551 -0.383162
vt 0.0950327 -0.320522
vt 0.0950327 -0.383162
vt 0.12671 -0.320522
vt 0.12671 -0.383162
vt 0.158388 -0.320522
vt 0.158388 -0.383162
vt 0.190066 -0.320522
vt 0.190066 -0.383162
vt 0.221743 -0.320522
vt 0.221743 -0.383162
vt 0.253421 -0.320522
vt 0.253421 -0.383162
vt 0.433387 -0.0487614
vt 0.451793 -0.0841921
vt 0.442881 -0.0841921
vt 0.441106 -0.0443051
vt 0.40745 -0.0228245
vt 0.411907 -0.0151059
vt 0.37202 -0.0133309
vt 0.37202 -0.00441831
vt 0.336589 -0.0228245
vt 0.332133 -0.0151059
vt 0.310652 -0.0487614
vt 0.302934 -0.0443051
vt 0.301158 -0.0841921
vt 0.292246 -0.0841921
vt 0.310652 -0.119623
vt 0.302934 -0.124079
vt 0.336589 -0.14556
vt 0.332133 -0.153278
vt 0.37202 -0.155053
vt 0.37202 -0.163966
vt 0.40745 -0.14556
vt 0.411907 -0.153278
vt 0.433387 -0.119623
vt 0.441106 -0.124079
vt 0.316776 -0.31578
vt 0.285098 -0.291894
vt 0.285098 -0.31578
vt 0.316776 -0.291894
vt 0.348454 -0.31578
vt 0.348454 -0.291894
vt 0.380131 -0.31578
vt 0.380131 -0.291894
vt 0.0316775 -0.31578
vt -7.74519e-008 -0.291894
vt -7.74519e-008 -0.31578
vt 0.0316775 -0.291894
vt 0.0633551 -0.31578
vt 0.0633551 -0.291894
vt 0.0950327 -0.31578
vt 0.0950327 -0.291894
vt 0.12671 -0.31578
vt 0.12671 -0.291894
vt 0.158388 -0.31578
vt 0.158388 -0.291894
vt 0.190066 -0.31578
vt 0.190066 -0.291894
vt 0.221743 -0.31578
vt 0.221743 -0.291894
vt 0.253421 -0.31578
vt 0.253421 -0.291894
vt 0.269632 -0.160957
vt 0.154878 -0.160957
vt 0.254257 -0.10358
vt 0.212255 -0.061577
vt 0.154878 -0.0462027
vt 0.0975005 -0.061577
vt 0.0554976 -0.10358
vt 0.0401235 -0.160957
vt 0.0554976 -0.218334
vt 0.0975005 -0.260337
vt 0.154878 -0.275711
vt 0.212255 -0.260337
vt 0.254257 -0.218334

vn 1 -5.4038e-008 -3.54806e-007
vn 1 -1.64977e-007 -3.80999e-007
vn 1 -1.68151e-007 -3.36302e-007
vn 1 -1.27119e-007 -4.44379e-007
vn 1 -1.68151e-007 -4.48403e-007
vn 1 -1.79145e-007 -3.62315e-007
vn 1 -1.96176e-007 -3.39787e-007
vn 1 -1.68151e-007 -3.36302e-007
vn 1 -1.30604e-007 -3.3429e-007
vn 1 -1.47635e-007 -3.67812e-007
vn 1 -1.68151e-007 -4.48403e-007
vn 1 -1.99661e-007 -4.38882e-007
vn 1 -2.72742e-007 -3.60303e-007
vn -1.52992e-007 0.420975 -0.907072
vn -2.62998e-007 0.0889629 -0.996035
vn -3.25232e-007 -0.0889618 -0.996035
vn -1.10685e-007 0.575062 -0.81811
vn -2.16015e-008 0.818111 -0.575061
vn 2.94373e-008 0.907073 -0.420973
vn 1.81985e-007 0.996035 -0.0889615
vn 2.50964e-007 0.996035 0.088963
vn 3.4851e-007 0.907072 0.420975
vn 2.50964e-007 0.996035 0.088963
vn 1.81985e-007 0.996035 -0.0889615
vn 3.45078e-007 0.81811 0.575061
vn 3.49058e-007 0.575061 0.818111
vn 3.5291e-007 0.420973 0.907073
vn 3.54978e-007 0.0889615 0.996035
vn 3.42051e-007 -0.0889629 0.996035
vn 2.36047e-007 -0.420974 0.907073
vn 1.68368e-007 -0.575062 0.81811
vn 4.6062e-008 -0.818111 0.575061
vn -5.99569e-009 -0.907073 0.420973
vn -1.33172e-007 -0.996035 0.0889616
vn -1.77875e-007 -0.996035 -0.088963
vn -2.74403e-007 -0.907072 -0.420975
vn -3.14236e-007 -0.81811 -0.575062
vn -3.58576e-007 -0.57506 -0.818111
vn -3.66429e-007 -0.420973 -0.907073
vn -1 -6.50415e-008 6.37702e-007
vn -1 1.4337e-007 3.71827e-007
vn -1 1.76645e-007 1.88263e-007
vn -1 -3.61536e-008 6.44724e-007
vn -1 2.61141e-007 4.10242e-007
vn -1 4.69552e-007 2.93835e-007
vn -1 2.72397e-007 3.2888e-007
vn -1 2.7841e-007 3.78235e-007
vn -1 5.02218e-007 5.1004e-007
vn -1 5.34579e-007 4.4929e-007
vn -1 2.19738e-007 2.83623e-007
vn -1 -4.14371e-008 2.34988e-009
vn -1 9.44691e-008 2.10334e-008
vn -1 1.06003e-007 3.71828e-007
vn -1 -6.50419e-008 6.37703e-007
vn -1 -3.6154e-008 6.44725e-007
vn -1 2.6114e-007 4.10242e-007
vn -1 4.69551e-007 2.93835e-007
vn -1 2.72397e-007 3.2888e-007
vn -1 2.78409e-007 3.78235e-007
vn -1 5.02218e-007 5.1004e-007
vn -1 6.24638e-007 5.90394e-007
vn -1 3.54607e-007 5.91957e-007
vn -1 1.30799e-007 3.10684e-007
vn -0.150439 -0.416183 0.896749
vn -0.150439 -0.0879502 0.984699
vn -0.150439 0.0879494 0.984699
vn -0.150439 -0.568517 0.808799
vn -0.150439 -0.8088 0.568516
vn -0.150439 -0.89675 0.416183
vn -0.15044 -0.984699 0.0879494
vn -0.150439 -0.984699 -0.0879504
vn -0.150439 -0.896749 -0.416184
vn -0.150439 -0.984699 -0.0879504
vn -0.15044 -0.984699 0.0879494
vn -0.150439 -0.808799 -0.568517
vn -0.150439 -0.568516 -0.8088
vn -0.150439 -0.416182 -0.89675
vn -0.150439 -0.0879491 -0.984699
vn -0.150439 0.0879503 -0.984699
vn -0.150439 0.416183 -0.896749
vn -0.150439 0.568517 -0.808799
vn -0.150439 0.8088 -0.568516
vn -0.150439 0.89675 -0.416182
vn -0.150439 0.9847 -0.0879491
vn -0.150439 0.984699 0.0879505
vn -0.150438 0.896749 0.416184
vn -0.150438 0.808799 0.568517
vn -0.150438 0.568516 0.8088
vn -0.150439 0.416182 0.89675
vn -1 2.00289e-007 3.00434e-007
vn -1 1.60745e-007 3.878e-007
vn -1 2.32384e-008 3.60328e-007
vn -1 1.63633e-007 4.83711e-007
vn -1 2.00289e-007 4.00578e-007
vn -1 1.09966e-007 4.104e-007
vn -1 2.7927e-007 4.16948e-007
vn -1 2.3367e-007 2.67052e-007
vn -1 1.10199e-008 3.14728e-007
vn -1 1.46943e-007 4.54802e-007
vn -1 2.00289e-007 4.00578e-007
vn -1 1.09966e-007 4.104e-007
vn -1 2.50361e-007 4.33639e-007

g submesh0
usemtl Material#41
#num faces96
f 1/1/1 2/2/2 3/3/3
f 4/4/4 2/2/2 1/1/1
f 5/5/5 2/2/2 4/4/4
f 6/6/6 2/2/2 5/5/5
f 7/7/7 2/2/2 6/6/6
f 8/8/8 2/2/2 7/7/7
f 9/9/9 2/2/2 8/8/8
f 10/10/10 2/2/2 9/9/9
f 11/11/11 2/2/2 10/10/10
f 12/12/12 2/2/2 11/11/11
f 13/13/13 2/2/2 12/12/12
f 3/3/3 2/2/2 13/13/13
f 14/14/14 15/15/15 16/16/16
f 17/17/17 15/15/15 14/14/14
f 18/18/18 17/17/17 14/14/14
f 19/19/19 17/17/17 18/18/18
f 20/20/20 19/19/19 18/18/18
f 21/21/21 19/19/19 20/20/20
f 22/22/22 23/23/23 24/24/24
f 25/25/25 23/23/23 22/22/22
f 26/26/26 25/25/25 22/22/22
f 27/27/27 25/25/25 26/26/26
f 28/28/28 27/27/27 26/26/26
f 29/29/29 27/27/27 28/28/28
f 30/30/30 29/29/29 28/28/28
f 31/31/31 29/29/29 30/30/30
f 32/32/32 31/31/31 30/30/30
f 33/33/33 31/31/31 32/32/32
f 34/34/34 33/33/33 32/32/32
f 35/35/35 33/33/33 34/34/34
f 36/36/36 35/35/35 34/34/34
f 37/37/37 35/35/35 36/36/36
f 38/38/38 37/37/37 36/36/36
f 39/39/39 37/37/37 38/38/38
f 16/16/16 39/39/39 38/38/38
f 15/15/15 39/39/39 16/16/16
f 40/40/40 41/41/41 42/42/42
f 43/43/43 41/41/41 40/40/40
f 44/44/44 43/43/43 40/40/40
f 45/45/45 43/43/43 44/44/44
f 46/46/46 45/45/45 44/44/44
f 47/47/47 45/45/45 46/46/46
f 48/48/48 47/47/47 46/46/46
f 49/49/49 47/47/47 48/48/48
f 50/50/50 49/49/49 48/48/48
f 51/51/51 49/49/49 50/50/50
f 52/52/52 51/51/51 50/50/50
f 53/53/53 51/51/51 52/52/52
f 54/54/54 53/53/53 52/52/52
f 55/55/55 53/53/53 54/54/54
f 56/56/56 55/55/55 54/54/54
f 57/57/57 55/55/55 56/56/56
f 58/58/58 57/57/57 56/56/56
f 59/59/59 57/57/57 58/58/58
f 60/60/60 59/59/59 58/58/58
f 61/61/61 59/59/59 60/60/60
f 62/62/62 61/61/61 60/60/60
f 63/63/63 61/61/61 62/62/62
f 42/42/42 63/63/63 62/62/62
f 41/41/41 63/63/63 42/42/42
f 64/64/64 65/65/65 66/66/66
f 67/67/67 65/65/65 64/64/64
f 68/68/68 67/67/67 64/64/64
f 69/69/69 67/67/67 68/68/68
f 70/70/70 69/69/69 68/68/68
f 71/71/71 69/69/69 70/70/70
f 72/72/72 73/73/73 74/74/74
f 75/75/75 73/73/73 72/72/72
f 76/76/76 75/75/75 72/72/72
f 77/77/77 75/75/75 76/76/76
f 78/78/78 77/77/77 76/76/76
f 79/79/79 77/77/77 78/78/78
f 80/80/80 79/79/79 78/78/78
f 81/81/81 79/79/79 80/80/80
f 82/82/82 81/81/81 80/80/80
f 83/83/83 81/81/81 82/82/82
f 84/84/84 83/83/83 82/82/82
f 85/85/85 83/83/83 84/84/84
f 86/86/86 85/85/85 84/84/84
f 87/87/87 85/85/85 86/86/86
f 88/88/88 87/87/87 86/86/86
f 89/89/89 87/87/87 88/88/88
f 66/66/66 89/89/89 88/88/88
f 65/65/65 89/89/89 66/66/66
f 90/90/90 91/91/91 92/92/92
f 92/92/92 91/91/91 93/93/93
f 93/93/93 91/91/91 94/94/94
f 94/94/94 91/91/91 95/95/95
f 95/95/95 91/91/91 96/96/96
f 96/96/96 91/91/91 97/97/97
f 97/97/97 91/91/91 98/98/98
f 98/98/98 91/91/91 99/99/99
f 99/99/99 91/91/91 100/100/100
f 100/100/100 91/91/91 101/101/101
f 101/101/101 91/91/91 102/102/102
f 102/102/102 91/91/91 90/90/90

